<svg width="230" height="230" viewBox="0 0 230 230" fill="none" xmlns="http://www.w3.org/2000/svg">
<rect width="230" height="230" fill="#F7F3EB"/>
<path d="M140.596 84.0398C174.825 79.7855 206.017 104.068 210.309 138.298C214.602 172.526 190.347 203.758 156.13 208.082C121.871 212.413 90.5911 188.119 86.2974 153.842C82.0024 119.563 106.322 88.3004 140.596 84.0398Z" fill="#426B1F"/>
<path d="M140.694 92.3828C170.471 88.1248 198.034 108.922 202.106 138.735C206.189 168.547 185.243 195.989 155.404 199.895C125.828 203.771 98.6695 183.024 94.6217 153.457C90.574 123.892 111.156 96.6052 140.694 92.3828Z" fill="#F7F3EB"/>
<path d="M149.107 134.534C155.429 128.034 177.236 99.9812 181.848 120.917C182.894 125.639 164.285 141.964 160.25 146.263C166.326 152.593 174.899 159.748 179.843 166.983C183.927 172.954 180.397 176.746 174.801 179.59C166.892 178.731 156.044 164.348 148.64 157.8C143.24 163.059 129.963 179.523 124.54 179.12C100.751 177.347 135.073 148.457 137.214 146.254C129.571 137.773 105.018 121.83 122.97 113.135C130.694 113.661 141.432 127.992 149.107 134.534Z" fill="#426B1F"/>
<path d="M29.1099 21.8169C40.5041 20.6706 95.0744 20.2377 103.394 22.791C106.371 23.7061 108.578 25.8265 109.944 28.6161C112.164 33.1435 112.198 40.7655 110.339 45.4011C108.585 49.7748 104.557 51.2225 100.559 52.9383C100.775 59.1716 101.796 92.9337 99.7727 96.4943L92.7203 103.606C92.5308 86.7519 92.5185 69.898 92.6833 53.0453C79.3224 52.573 65.3589 53.1732 51.7987 52.7661C33.9313 52.2286 17.4734 56.9516 21.531 30.9074C22.2259 26.4501 25.6463 24.0554 29.1099 21.8169Z" fill="#426B1F"/>
<path d="M34.0687 29.4932C52.0764 29.3038 81.2975 28.8057 99.8119 30.4464C102.526 30.6875 107.479 42.1198 97.882 44.6277C83.9283 44.549 69.9721 44.5441 56.0172 44.6105C49.9388 44.6203 37.4573 45.0274 32.0271 43.9734C28.0346 41.2084 27.2474 31.5054 34.0687 29.4932Z" fill="#F7F3EB"/>
<path d="M44.8334 115.282L86.1718 115.021C76.3962 140.713 76.2671 156.66 87.5937 180.99C88.2935 182.493 85.9701 185.833 85.0698 187.33C84.5163 187.963 83.9494 188.583 83.3676 189.19C70.3831 202.682 48.6486 195.582 45.436 177.319C44.0671 169.538 44.591 160.964 44.6292 153.026L44.8334 115.282Z" fill="#426B1F"/>
<path d="M56.7651 159.33C60.1573 158.838 63.3158 161.162 63.8546 164.55C64.3933 167.936 62.1117 171.126 58.7343 171.712C56.5068 172.098 54.2449 171.255 52.8133 169.506C51.3816 167.756 51.0028 165.371 51.8207 163.264C52.6386 161.158 54.5278 159.653 56.7651 159.33Z" fill="#F7F3EB"/>
<path d="M68.5232 133.908C70.854 132.73 73.6989 133.641 74.9116 135.955C76.1256 138.267 75.2596 141.126 72.9658 142.375C71.4505 143.202 69.6081 143.146 68.1444 142.231C66.6808 141.316 65.8247 139.683 65.9034 137.958C65.9822 136.234 66.9833 134.686 68.5232 133.908Z" fill="#F7F3EB"/>
<path d="M32.8084 58.2308C35.7283 58.451 35.8562 58.0193 38.1242 59.5407C39.7391 64.1223 39.1954 80.8951 39.1659 86.6623L38.8584 146.753C38.8289 154.234 37.7995 171.455 39.2213 178.017C45.403 206.543 76.2119 209.979 92.5456 187.79C95.618 190.961 98.2354 192.075 96.1002 196.108C72.7214 223.969 31.0003 209.065 30.9499 173.038C30.8995 136.517 30.517 99.9396 31.004 63.42C31.0274 61.6415 31.9523 59.74 32.8084 58.2308Z" fill="#426B1F"/>
<path d="M56.8636 62.6525C59.1451 61.8899 61.6628 62.4422 63.4143 64.0928C65.1669 65.7434 65.8705 68.2229 65.2457 70.5475C64.6221 72.8721 62.771 74.6654 60.428 75.2152C57.0284 76.0134 53.6018 73.9963 52.6486 70.6361C51.6953 67.2759 53.5513 63.7594 56.8636 62.6525Z" fill="#426B1F"/>
<path d="M67.3859 93.2584C69.3735 92.1785 71.7916 92.2658 73.6967 93.4872C75.6007 94.7085 76.6892 96.8707 76.5367 99.1289C76.3854 101.386 75.0152 103.382 72.9637 104.337C69.9257 105.75 66.3158 104.494 64.8079 101.501C63.3013 98.509 64.4427 94.8598 67.3859 93.2584Z" fill="#426B1F"/>
<path d="M50.2035 89.4984C52.656 88.6386 55.3435 89.9018 56.2488 92.3371C57.154 94.7736 55.9437 97.4857 53.5257 98.4364C51.9206 99.0686 50.099 98.7832 48.7633 97.6923C47.4276 96.6001 46.7856 94.872 47.0844 93.1735C47.3833 91.4737 48.5763 90.0691 50.2035 89.4984Z" fill="#426B1F"/>
</svg>
