<svg width="230" height="230" viewBox="0 0 230 230" fill="none" xmlns="http://www.w3.org/2000/svg">
<rect width="230" height="230" fill="#F7F3EB"/>
<path d="M180.206 54.7104C189.886 54.0328 192.803 56.0872 199.552 62.8465C216.678 62.9021 221.357 70.4377 219.79 86.678C232.227 98.2942 233.851 111.303 221.614 123.806C223.578 127.483 226.079 132.135 225.967 136.601C225.358 160.893 198.766 155.029 185.263 166.465C175.687 174.576 178.536 176.25 172.528 185.567C171.724 186.816 170.702 186.572 169.62 186.518C168.359 185.221 167.58 184.824 167.854 182.675C168.346 178.808 170.292 173.51 171.549 170.049C181.402 142.941 203.545 159.125 215.822 147.291C218.429 144.788 219.845 141.292 219.715 137.679C219.51 130.976 215.965 127.614 211.594 123.236C219.764 118.433 226.535 112.495 223.793 101.581C222.186 95.1898 217.783 92.0695 212.195 89.0208C214.311 83.8642 215.086 76.3638 210.195 72.3026C205.682 68.5535 201.061 69.398 195.689 70.0904C186.848 53.8273 175.571 60.2461 167.38 72.1346L166.294 71.9814C150.276 69.7771 145.573 77.273 144.143 91.9254C128.46 92.275 128.879 95.1546 128.681 109.109C128.557 117.85 122.263 122.999 116.083 128.404C125.368 140.953 133.881 149.473 143.169 163.455C145.817 167.064 148.384 170.732 150.867 174.456C166.409 197.725 157.045 217.471 129.691 208.882C97.0661 198.638 52.2192 182.601 30.1963 155.009C24.5448 147.929 25.2993 137.675 27.3053 129.69C19.1167 130.208 5.62386 129.796 0.668988 121.083C-2.56694 115.391 6.76302 111.076 10.9951 109.286C-11.7437 84.3024 4.36331 71.6783 32.4338 81.4999C34.0846 76.2458 37.9843 67.4888 45.1335 72.3219C52.7695 77.4852 56.6397 88.838 58.6638 97.5178C81.776 91.6337 93.3309 107.166 109.124 121.109C129.252 109.21 113.24 92.5054 137.781 85.5032C141.958 71.7283 148.334 63.3039 163.776 65.8135C169.506 59.7342 172.265 57.0509 180.206 54.7104Z" fill="#426B1F"/>
<path d="M46.1172 161.073C41.7727 156.785 34.4431 149.079 33.65 142.991C31.5271 126.701 48.8743 107.135 64.4685 104.392C73.4319 102.816 79.6916 106.062 86.6707 110.954C78.0805 117.188 72.994 122.115 66.8387 130.799L67.1893 132.194L68.6405 132.861C70.8189 131.721 81.9404 119.062 89.4777 114.149C96.0562 118.693 105.538 129.156 111.293 135.308L113.597 137.942C117.916 142.781 121.779 147.911 125.751 153.036C110.535 163.733 104.549 172.664 96.8493 189.015C82.2944 182.926 62.003 173.886 49.7366 163.808C51.7233 159.085 61.6206 142.333 62.0529 140.451L60.9341 139.651L58.8419 140.051C55.7694 142.114 48.3149 156.983 46.1172 161.073Z" fill="#F7F3EB"/>
<path d="M111.293 135.308L113.597 137.943C101.961 146.315 97.588 157.294 91.4679 162.384L89.9509 162.236L89.3359 161.131C92.025 152.866 104.193 140.788 111.293 135.308Z" fill="#426B1F"/>
<path d="M127.888 155.499C134.32 160.5 152.726 187.273 151.346 196.469C149.783 206.897 134.553 202.316 128.381 200.766C118.871 197.648 109.503 194.111 100.303 190.166C106.667 176.388 115.592 164.557 127.888 155.499Z" fill="#F7F3EB"/>
<path d="M11.23 85.9471L11.7326 85.9222C19.1087 85.5692 27.8793 85.1038 33.4809 90.7586C38.6457 95.9719 44.3018 106.469 38.1068 112.718C25.4887 109.803 8.67366 104.414 8.16309 88.4363C9.30111 86.4477 8.8223 87.1003 11.23 85.9471Z" fill="#F7F3EB"/>
<path d="M40.3239 77.5396C46.2488 79.3477 54.3829 95.4564 51.3921 101.234C49.8456 102.032 49.2817 102.527 47.5616 102.309C46.1297 101.203 45.4387 100.522 44.4505 99.0329C40.2036 92.7311 38.7138 84.9673 40.3239 77.5396Z" fill="#F7F3EB"/>
<path d="M15.469 114.208C20.0392 113.841 31.1131 114.382 33.3188 119.027L32.7583 120.569C30.8601 122.144 30.1248 122.34 27.8068 123.247C26.7051 123.325 25.6022 123.372 24.4994 123.388C20.9628 123.425 7.92376 122.759 8.56142 117.764C10.3927 115.744 12.831 115.182 15.469 114.208Z" fill="#F7F3EB"/>
<path d="M189.423 80.5453C190.79 80.6134 190.689 80.7178 192.019 81.2309L192.616 82.619C191.815 86.7336 176.47 106.209 172.785 111.855C177.097 110.002 190.914 102.807 194.246 105.874C194.238 108.948 191.236 110.126 188.292 111.483C167.773 120.947 167.551 118.295 158.468 138.755C163.795 136.92 180.603 127.12 184.229 130.24C182.173 137.389 156.858 142.701 152.739 151.677C151.591 155.073 150.502 160.906 146.563 161.041C143.113 157.716 147.625 148.873 147.54 144.217C147.419 137.65 139.58 118.281 143.616 113.454L145.021 113.415C149.642 116.976 151.015 131.524 152.075 137.848C154.786 132.408 159.84 123.143 160.491 117.427C161.266 110.629 157.709 98.8049 159.915 91.8697C161.706 90.4214 160.75 90.6563 162.784 90.8254C165.586 94.3123 165.643 106.182 166.041 111.45C172.693 101.283 181.008 89.1944 189.423 80.5453Z" fill="#426B1F"/>
<path d="M53.9313 20.1366C62.1731 19.3341 69.3519 20.8392 72.0489 29.4656C75.7114 41.1794 75.6025 58.5468 62.5419 63.7317C60.1864 64.2266 57.7481 64.1698 55.4188 63.566C41.2905 59.885 41.4062 36.8219 46.9976 26.5394C48.8879 23.0628 50.6851 22.0072 53.9313 20.1366Z" fill="#426B1F"/>
<path d="M57.3557 25.5063C61.4812 26.0773 64.0738 27.0466 65.6123 31.2338C68.6417 39.4766 69.4723 54.0824 60.1593 58.3037C46.1695 56.0688 47.3813 31.7253 57.3557 25.5063Z" fill="#F7F3EB"/>
<path d="M87.8155 20.0868C89.716 19.9574 94.1603 19.7509 95.7998 20.2741C109.855 24.761 109.551 48.3791 102.696 58.472C101.052 60.8919 98.7509 62.0474 96.2185 63.3448C74.7447 67.9906 73.6611 38.3328 81.0384 25.711C82.8164 22.6679 84.8348 21.6089 87.8155 20.0868Z" fill="#426B1F"/>
<path d="M91.1376 25.5382C102.752 27.5518 101.7 41.0203 99.7686 50.1654C98.8836 54.3583 96.9343 56.1108 93.2922 58.1222C80.4007 57.709 79.6473 31.1749 91.1376 25.5382Z" fill="#F7F3EB"/>
<path d="M35.5993 19.6792C37.0789 19.9698 36.9734 19.9811 38.15 20.9505C40.19 25.2682 39.8837 54.5094 38.7683 60.8918C38.521 62.3084 37.7948 62.5138 36.7532 63.053C33.1554 61.9826 33.3732 60.6762 33.0533 57.4674C33.1066 52.1122 33.7556 35.7969 32.9069 31.5416C30.851 30.5598 30.7341 32.9457 27.0704 32.9854C24.9702 31.5836 25.5296 32.4054 25.0349 30.0763C26.148 26.6859 32.5552 22.0696 35.5993 19.6792Z" fill="#426B1F"/>
<path d="M118.211 31.5518C122.395 31.192 126.108 34.2282 126.588 38.4029C127.069 42.5777 124.145 46.3789 119.988 46.9817C117.19 47.388 114.392 46.2382 112.684 43.9829C110.978 41.7264 110.63 38.7196 111.78 36.134C112.93 33.5495 115.394 31.7935 118.211 31.5518Z" fill="#426B1F"/>
<path d="M117.756 35.7312C119.588 35.1626 121.547 36.1206 122.224 37.9173C122.9 39.7141 122.062 41.7277 120.31 42.5109C119.079 43.0603 117.646 42.8832 116.587 42.0489C115.527 41.2147 115.018 39.8628 115.264 38.5371C115.509 37.2102 116.469 36.1308 117.756 35.7312Z" fill="#F7F3EB"/>
<path d="M135.501 48.128C138.075 46.9907 141.062 47.3358 143.309 49.0292C145.555 50.7239 146.71 53.5014 146.328 56.2902C145.945 59.079 144.086 61.4422 141.466 62.4683C137.533 64.0074 133.092 62.1198 131.47 58.2186C129.847 54.3175 131.639 49.8351 135.501 48.128Z" fill="#426B1F"/>
<path d="M136.933 52.1698C138.062 51.5898 139.416 51.6647 140.476 52.3651C141.534 53.0654 142.133 54.2833 142.042 55.55C141.951 56.8167 141.184 57.9359 140.035 58.4773C138.302 59.2946 136.232 58.5704 135.386 56.8497C134.539 55.1289 135.228 53.0472 136.933 52.1698Z" fill="#F7F3EB"/>
<path d="M138.237 30.0033C139.938 30.9159 139.275 30.2734 140.192 32.0941C139.239 36.9702 123.614 58.6702 119.798 63.9062L117.341 61.8199C118.349 57.5238 134.725 34.3562 138.237 30.0033Z" fill="#426B1F"/>
</svg>
