<svg width="230" height="230" viewBox="0 0 230 230" fill="none" xmlns="http://www.w3.org/2000/svg">
<rect width="230" height="230" fill="#F7F3EB"/>
<path d="M140.563 71.3457C159.389 69.7689 171.649 80.13 177.84 97.321C180.074 102.626 182.593 115.586 186.576 119.221C200.165 131.794 220.761 137.996 224.246 159.505C228.19 183.834 213.559 197.412 191.499 201.538C112.488 208.346 71.0073 83.7485 140.563 71.3457Z" fill="#426B1F"/>
<path d="M139.337 80.2797C164.139 76.9613 170.669 96.5323 174.838 116.612C176.724 118.504 181.711 123.321 182.386 125.705C179.219 124.671 176.013 123.195 173.033 124.149L172.424 125.801C173.275 134.504 184.274 131.833 190.804 133.349C217.392 139.523 228.079 172.919 202.956 189.076C140.464 218.425 76.7562 98.8224 139.337 80.2797Z" fill="#F7F3EB"/>
<path d="M135.589 92.0713C138.727 92.134 139.235 92.2263 140.689 94.8559C140.353 97.8951 134.527 106.082 132.853 110.153C126.95 124.5 138.449 139.295 144.603 151.501C145.392 153.067 144.206 154.763 143.456 156.256C128.683 153.977 113.444 109.165 135.589 92.0713Z" fill="#426B1F"/>
<path d="M33.7189 6.14966C49.1843 16.2918 56.5763 28.8618 55.2098 47.2828C61.0299 43.4589 67.096 39.0926 72.8534 35.1039C73.1707 35.7434 73.4782 36.3879 73.7758 37.0373C79.4582 49.4339 79.703 65.8193 69.5522 76.0082C64.1675 81.4138 58.4224 83.6806 51.5901 86.63L53.1324 97.4879C62.9117 82.6892 71.4918 79.6414 86.6238 71.6259C93.391 101.054 83.6007 115.063 56.8001 125.212L59.4457 141.933C67.4711 122.394 75.9381 119.156 93.2902 109.15C101.78 137.416 94.2249 155.307 67.6901 167.832C78.2307 188.026 98.4646 203.022 119.142 211.489C126.388 214.456 138.703 215.574 143.284 221.786L141.245 223.535C139.371 224.069 137.389 224.191 135.517 223.642C98.9578 212.915 80.0572 199.831 60.7212 168.587C28.0243 169.184 11.6353 156.144 7.37964 123.476C27.4056 124.677 39.544 128.051 53.0648 143.371C51.9418 138.018 50.9874 131.748 50.028 126.297C21.8832 125.582 11.3044 112.897 7.89743 85.2807C23.3357 87.042 34.6266 88.9632 46.1168 99.9528L45.6297 88.5044C17.5476 87.0728 10.3401 73.1215 8.86295 46.8658C16.5194 47.926 21.9705 49.7759 29.1595 52.2517C18.8218 32.163 27.3355 26.969 33.7189 6.14966Z" fill="#426B1F"/>
<path d="M88.2844 120.606L89.2228 121.816C91.5388 139.72 83.2883 154.936 65.6743 160.522C61.1345 153.914 66.8402 139.108 71.5669 133.651C77.1164 127.245 80.933 124.511 88.2844 120.606Z" fill="#F7F3EB"/>
<path d="M16.6105 132.132C38.0927 134.718 46.5486 141.895 54.8999 161.285C36.9599 161.366 18.1319 151.872 16.6105 132.132Z" fill="#F7F3EB"/>
<path d="M79.8286 83.7742L81.2172 84.704C82.3795 88.9436 80.8199 95.498 79.36 99.5987C75.8153 109.554 67.1245 112.898 58.2184 116.965L56.4854 116.765C55.472 113.77 57.4276 105.981 58.6415 102.949C62.966 92.139 69.9903 88.2512 79.8286 83.7742Z" fill="#F7F3EB"/>
<path d="M16.7593 93.9717C33.9884 95.9347 43.2536 102.516 48.0995 119.138C28.8029 118.599 21.2363 112.667 16.7593 93.9717Z" fill="#F7F3EB"/>
<path d="M68.7663 47.0872C69.0603 47.3393 69.3592 47.5472 69.5166 47.9407C73.8435 58.7655 68.2461 69.1217 59.297 75.462C57.1778 76.965 54.2345 78.2368 51.782 79.3622C45.8635 73.6737 55.8802 54.9859 61.608 51.8717C63.8957 50.627 66.3864 48.5225 68.7663 47.0872Z" fill="#F7F3EB"/>
<path d="M16.934 56.4497C33.0155 60.0436 39.8774 65.031 44.7308 80.8851C26.482 80.9343 20.0814 73.5595 16.934 56.4497Z" fill="#F7F3EB"/>
</svg>
