<svg width="230" height="230" viewBox="0 0 230 230" fill="none" xmlns="http://www.w3.org/2000/svg">
<rect width="230" height="230" fill="#F7F3EB"/>
<path d="M151.06 85.7023C186.446 85.2214 215.536 113.494 216.074 148.887C216.612 184.281 188.393 213.425 153.009 214.02C117.544 214.615 88.3266 186.312 87.7879 150.837C87.2479 115.363 115.593 86.1832 151.06 85.7023Z" fill="#426B1F"/>
<path d="M146.196 94.6745C176.541 91.5173 203.735 113.474 207.051 143.81C210.367 174.145 188.557 201.46 158.247 204.934C127.712 208.435 100.156 186.424 96.8169 155.863C93.4764 125.303 115.626 97.8564 146.196 94.6745Z" fill="#F7F3EB"/>
<path d="M152.286 137.932C156.959 133.935 172.962 115.276 177.662 116.043C200.181 119.715 170.138 143.9 163.846 149.986C171.807 158.559 197.536 175.857 178.745 184.381C170.633 183.151 159.053 168.147 151.911 161.429C148.331 165.386 123.374 198.436 118.657 176.673C117.325 170.523 135.583 154.835 140.712 149.865C132.977 141.592 108.771 126.25 123.878 116.153L124.6 116.158C134.2 116.085 145.539 130.984 152.286 137.932Z" fill="#426B1F"/>
<path d="M85.3229 17.2396C96.6446 16.675 100.35 27.9942 106.567 36.027C117.384 50.0029 126.577 67.2959 138.861 80.0185C135.093 81.2522 127.147 84.1708 123.548 84.3368C123.208 82.5571 121.943 76.0605 121.16 75.0249C112.579 63.6885 97.2817 37.9875 87.8849 29.3226C81.5888 34.5794 72.7074 46.4729 67.4309 53.3397C49.7935 76.293 28.818 101.226 25.6017 131.098C23.8404 147.448 28.6532 162.666 38.9171 175.369C54.2902 191.395 76.2017 199.885 98.3383 195.68C101.38 199.451 103.419 201.516 106.913 204.915C78.8092 211.305 46.983 203.419 29.3161 179.5C18.4741 164.857 13.9737 146.468 16.8272 128.471C21.7864 97.1307 48.2155 63.3921 67.0656 38.6898C71.1687 33.3137 80.2088 21.0167 85.3229 17.2396Z" fill="#426B1F"/>
<path d="M56.5496 91.1914C58.4978 91.2566 58.9307 91.6121 60.6441 92.462C63.7202 97.5146 53.1217 111.076 52.2521 119.497C50.684 134.68 52.0553 144.019 62.1569 156.225C66.0275 160.901 73.8919 166.404 72.6988 172.375C70.9818 174.525 70.2721 174.577 67.5797 175.358C30.1106 165.494 31.9949 114.808 56.5496 91.1914Z" fill="#426B1F"/>
</svg>
