<svg width="230" height="230" viewBox="0 0 230 230" fill="none" xmlns="http://www.w3.org/2000/svg">
<rect width="230" height="230" fill="#F7F3EB"/>
<path d="M50.5046 26.3968C57.6775 25.3732 68.9221 25.859 76.2274 26.8581C89.1189 28.6211 84.599 39.2404 82.4562 48.0887C108.845 55.6852 86.0198 65.3167 83.2904 73.3593C83.4523 75.2689 83.0694 74.5132 84.2976 75.7822C90.0722 75.3066 94.9108 70.6055 102.309 70.3427C122.818 69.6125 133.675 86.6185 133.206 105.519C133.013 113.533 130.844 138.885 125.588 144.089C123.438 144.765 124.258 144.834 122.324 144.157C121.29 141.146 123.547 133.268 124.114 129.725C126.352 113.312 131.139 95.755 118.503 82.3889C110.113 73.5121 82.4726 77.814 84.4096 88.636C85.0299 89.3622 86.198 90.8216 87.2419 90.3002C92.3525 87.75 99.8849 84.5887 106.051 86.1052C109.679 86.9617 112.828 89.2084 114.819 92.3615C120.262 101.089 116.285 119.307 114.203 128.895C116.616 133.562 120.515 139.226 119.243 143.978C117.414 145.846 116.752 145.488 113.846 146.175C107.236 121.392 92.5073 119.472 81.17 98.4681C78.1198 92.8168 77.3651 78.3345 75.0236 75.7242C72.5916 74.554 70.072 74.7027 67.3548 74.6131C63.2128 74.5448 46.2688 73.6527 44.7921 76.4238C43.5017 78.8447 40.6348 95.6684 38.3851 100.12C32.0697 112.618 19.7037 119.33 12.7202 130.44C7.23082 139.335 5.44346 150.027 7.73903 160.226C9.98878 169.492 15.8438 177.479 24.0036 182.411C41.4516 193.178 67.5931 192.051 86.9344 187.461L88.7014 193.797C79.6311 196.334 69.2368 197.734 59.753 197.671C56.6794 197.714 47.1752 196.284 44.7656 196.636C38.3749 197.573 23.1776 205.28 27.0212 191.986C27.2188 191.3 17.9754 186.648 16.2207 185.369C9.49076 180.467 4.55945 173.327 2.09482 165.27C-2.99334 148.632 1.34214 130.543 13.4189 118.019C25.4712 105.451 33.1869 102.027 36.3146 83.165C40.3425 68.3374 30.4646 68.6724 25.298 58.7844C22.0746 52.6146 37.4685 48.605 40.5554 47.9705C40.0604 45.7697 39.5828 43.5647 39.1224 41.3567C36.8564 30.384 39.9677 27.8206 50.5046 26.3968Z" fill="#426B1F"/>
<path d="M38.2182 54.9288C45.6437 54.6018 84.7622 53.3848 88.0935 57.7539C87.182 59.6747 82.5633 63.1435 80.6283 65.3444C79.9052 66.4341 79.1851 67.311 78.3734 68.3254C73.5592 69.4426 48.2763 68.525 41.9874 68.5484C38.9148 63.6538 34.0741 60.519 33.626 57.1693C34.7768 55.6569 36.3045 55.496 38.2182 54.9288Z" fill="#F7F3EB"/>
<path d="M54.8117 32.6705C63.059 32.1928 70.8563 32.2896 78.848 34.6065C77.4986 39.6173 77.905 43.9314 75.1022 47.9227C72.5856 49.2732 72.4134 48.765 69.1341 48.6835L47.3006 48.7273C44.7739 37.9613 41.5118 33.5148 54.8117 32.6705Z" fill="#F7F3EB"/>
<path d="M98.6465 92.7821C115.768 90.2115 111.123 110.302 109.236 120.977L105.661 117.089C98.3064 109.831 94.0055 106.783 88.6484 97.693C92.6937 95.1948 94.1857 94.4706 98.6465 92.7821Z" fill="#F7F3EB"/>
<path d="M181.542 104.97L182.672 106.292C184.719 113.158 179.729 120.549 176.164 125.977C170.644 134.363 163.485 139.422 155.144 144.523L165.593 145.468C181.379 129.968 200.943 130.384 221.251 133.513C223.094 133.797 223.512 134.744 224.276 136.11C222.982 144.826 200.882 151.046 193.325 152.535C206.351 156.561 215.456 164.701 223.858 175.135C226.292 178.167 232.209 184.107 229.134 187.867C225.742 189.041 223.186 188.251 219.886 187.454C198.234 182.213 192.113 171.065 181.837 153.755C169.219 149.936 148.239 147.89 135.63 152.906C140.631 156.811 142.281 158.346 145.265 163.91C143.401 166.062 141.639 168.3 139.989 170.617C134.082 178.94 133.196 185.465 134.856 195.189C126.79 201.554 115.477 206.663 105.191 202.881C100.35 201.138 96.4303 197.494 94.3374 192.792C87.3824 177.17 101.737 155.599 116.963 152.166C126.872 149.93 129.632 150.395 139.612 145.909C145.662 122.965 161.672 114.487 181.542 104.97Z" fill="#426B1F"/>
<path d="M176.908 112.386L177.824 112.848C177.814 113.303 177.835 113.895 177.651 114.311C170.41 130.281 160.45 136.958 145.927 143.62L145.255 143.486L144.847 142.655C150.836 127.192 163.342 120.031 176.908 112.386Z" fill="#F7F3EB"/>
<path d="M118.532 158.541C119.764 158.441 123.439 158.375 124.296 158.913C139.215 168.295 114.454 174.736 110.415 176.192C108.049 177.514 106.672 178.773 104.082 178.602C99.1923 175.215 106.42 166.968 109.17 164.162C112.103 161.167 114.676 159.981 118.532 158.541Z" fill="#F7F3EB"/>
<path d="M188.63 156.022C203.683 159.439 216.24 171.777 224.897 184.078C210.048 182.938 193.946 169.859 188.63 156.022Z" fill="#F7F3EB"/>
<path d="M196.92 136.956C202.481 136.582 211.617 137.448 217.218 138.061C209.62 143.449 202.542 146.378 193.325 147.335C184.088 148.3 180.33 147.419 171.144 146.166C179.607 139.499 186.39 137.958 196.92 136.956Z" fill="#F7F3EB"/>
<path d="M33.5313 119.133C36.2607 120.971 38.0663 122.741 40.4821 124.977C33.7084 130.783 23.6126 144.114 30.6287 153.093C31.918 154.733 33.8225 155.773 35.8991 155.971C47.542 157.171 52.2625 140.688 48.6287 132.013C46.7802 127.599 46.0714 126.96 42.6423 123.376C57.8853 122.24 73.1243 123.602 89.6486 122.19C95.1981 127.18 108.875 142.337 105.62 150.535C105.088 150.914 104.564 151.301 104.045 151.696C95.1014 158.525 88.4367 167.421 86.9335 178.759C67.7826 185.962 37.7354 186.722 22.419 171.004C17.0029 165.484 14.0993 157.977 14.3906 150.248C14.7939 136.28 24.1076 127.898 33.5313 119.133Z" fill="#426B1F"/>
<path d="M161.754 157.354C163.424 157.219 165.104 157.116 166.775 157.044C178.436 156.585 185.697 163.931 185.921 175.424C186.298 195.566 159.289 214.707 142.953 198.319C137.301 189.883 140.254 168.545 150.235 169.895C151.63 172.233 147.495 177.883 151.926 179.245C157.191 180.86 171.419 173.889 167.019 167.146C164.778 163.719 154.288 165.38 152.129 161.677C154.278 158.696 158.25 158.179 161.754 157.354Z" fill="#426B1F"/>
<path d="M55.1465 112.176C61.0514 112.116 73.2177 111.466 79.0045 112.978C79.7399 113.171 80.3163 114.611 80.5984 115.347C79.7826 119.9 71.6198 118.299 67.7752 118.144C63.2848 118.178 43.3203 119.23 40.6428 117.06C39.7913 115.046 39.8555 116.047 40.4136 113.957C43.4028 111.232 50.8344 112.12 55.1465 112.176Z" fill="#426B1F"/>
</svg>
