<svg width="230" height="230" viewBox="0 0 230 230" fill="none" xmlns="http://www.w3.org/2000/svg">
<rect width="230" height="230" fill="#F7F3EB"/>
<path d="M138.816 17.2192C152.356 17.3041 157.683 28.2924 157.17 40.3521L165.937 45.8143C169.379 45.4108 172.83 45.0837 176.286 44.8328C192.668 52.2321 182.832 57.2245 190.679 69.6162C192.136 71.9174 199.801 75.7524 202.007 77.9577C217.74 93.6862 202.724 95.5459 205.682 109.738C207.177 116.916 214.376 120.399 214.578 125.506C214.884 133.262 206.09 141.104 201.393 146.231C202.607 150.548 203.881 154.849 205.213 159.132C200.304 180.603 194.617 169.73 183.334 180.79C179.046 184.993 180.692 192.655 176.998 195.522C171.412 199.858 161.065 199.305 154.603 199.206C149.126 203.052 146.852 208.437 141.313 212.252C130.095 219.976 124.819 208.389 114.423 208.69C110.302 208.809 104.602 214.076 99.6665 214.542C88.8319 215.567 84.414 204.951 77.0712 199.717L76.4538 199.286C60.4067 198.828 51.2534 200.181 50.0727 184.113C49.5155 176.526 38.1237 175.923 33.274 172.761C21.1603 164.864 30.2644 154.908 27.299 144.688C25.6287 139.852 17.2736 135.843 16.3315 129.895C14.7449 119.868 18.9107 118.129 23.9633 111.273C28.31 105.373 22.8761 97.7291 21.8909 92.0738C16.5984 80.6611 39.0031 72.6923 39.5394 69.5658C41.8874 55.8666 43.7876 47.2853 59.7499 43.8857C62.8727 43.2203 69.0717 42.0113 72.8427 44.3974C73.7836 46.4243 73.6286 45.3666 73.1206 47.6985C68.8883 52.5089 59.7659 51.4339 54.7661 53.4928C47.9104 56.3168 50.0555 67.4011 47.0261 72.8657C43.5011 79.2233 33.5385 80.1052 30.7871 86.7825C27.7897 94.0565 34.2715 99.7573 33.354 107.304C32.6074 113.447 26.1637 116.738 24.5525 122.012C21.7015 131.337 32.7513 135.188 35.4892 142.75C37.9565 149.564 31.5989 156.506 35.3047 162.866C38.6538 168.617 48.1392 168.356 52.102 173.381C54.8288 176.837 55.7894 182.632 57.9603 186.531C63.2171 195.972 73.9115 188.231 81.4793 193.435C86.7287 197.044 89.9955 204.994 96.3641 206.332C103.024 207.732 109.969 199.817 117.374 200.744C122.481 201.384 126.727 205.695 131.43 206.708C140.042 208.564 143.533 196.822 150.439 193.143C157.294 189.492 164.241 193.942 170.637 189.916C175.473 186.872 175.148 177.804 178.876 174.157C183.074 170.049 188.504 169.509 194.101 165.701C194.324 165.365 194.54 165.026 194.748 164.68C198.365 158.599 196.114 153.339 194.473 146.734C197.238 137.309 199.928 138.333 204.598 130.357C210.712 119.916 196.248 115.663 197.572 105.354C198.003 101.06 203.616 91.0505 200.264 87.1183C190.823 76.0402 182.307 77.986 180.984 59.9168C180.476 52.9812 167.679 52.3822 162.912 50.9653C160.69 50.3048 157.956 48.8202 155.511 47.53L152.628 54.6059C180.351 73.6713 194.652 99.9897 187.456 134.011C183.278 152.86 171.837 169.301 155.614 179.763C139.277 190.461 119.31 194.1 100.25 189.856C80.8373 185.504 63.9649 173.584 53.3763 156.739C30.07 119.644 44.0816 76.3415 80.3921 54.1705C79.1449 51.0588 78.0048 47.9052 76.9716 44.7159C71.9743 28.996 77.8399 22.77 92.3865 18.844C95.0911 20.0703 99.5005 22.8795 102.204 24.4956C107.034 24.6124 116.288 23.7466 120.157 25.2582L120.51 26.3221C112.147 41.8846 98.1943 27.7254 86.7349 30.0156C79.7734 34.8788 82.7732 42.3483 85.6046 48.6149C91.8908 62.528 97.6987 69.9323 112.009 75.2949C109.563 67.2695 96.5289 52.713 98.9519 47.5177L101.35 47.2767C105.75 48.744 113.261 60.3768 116.655 64.9301C119.023 61.0644 129.48 40.3742 135.41 47.3136C135.549 54.4805 123.348 64.5795 122.052 72.4328L122.771 73.2605C133.135 72.0232 140.094 61.5059 144.91 53.1054C148.28 47.2275 150.085 40.6657 148.162 33.9859C145.096 23.3259 134.208 27.3282 126.887 23.3665L126.716 22.1698C130.655 18.5882 133.726 18.2032 138.816 17.2192Z" fill="#426B1F"/>
<path d="M82.5113 61.865C86.4914 63.0987 91.0066 74.6208 97.2461 78.1335C116.669 89.0714 138.099 80.0178 148.915 61.6658C155.387 65.1109 161.313 70.225 166.03 75.8102C177.399 89.1083 182.918 106.435 181.333 123.86C179.514 143.322 170.718 157.952 155.97 170.21C154.095 171.634 152.021 172.954 150.014 174.181C135.19 183.244 117.368 186.027 100.487 181.916C83.3378 177.682 68.5392 166.875 59.2814 151.827C50.1675 136.884 47.4714 118.893 51.807 101.934C56.0786 84.5219 67.4592 71.1118 82.5113 61.865Z" fill="#F7F3EB"/>
<path d="M147.23 95.7968C154.74 95.0539 164.937 100.13 159.462 107.522C148.969 121.686 135.744 134.267 124.215 147.733C121.758 150.603 114.468 158.795 109.886 159.368C103.387 157.987 93.2854 146.542 88.4788 141.753C83.6722 137.007 78.921 132.632 74.9507 127.167C84.9538 104.556 98.3258 127.392 109.675 137.164C117.117 129.121 140.524 100.765 147.23 95.7968Z" fill="#426B1F"/>
<path d="M123.375 25.8376C125.957 26.3456 126.395 26.337 127.755 28.439C127.997 33.9528 119.888 47.2867 116.97 52.8128C116.578 52.8153 115.197 52.466 114.727 52.3602C108.906 46.9608 119.375 31.0071 123.375 25.8376Z" fill="#426B1F"/>
</svg>
